<svg xmlns="http://www.w3.org/2000/svg" viewBox="0 0 24 24" fill="currentColor">
  <rect x="4.80" y="3.60" width="2.40" height="2.40"/>
  <rect x="7.20" y="3.60" width="2.40" height="2.40"/>
  <rect x="9.60" y="3.60" width="2.40" height="2.40"/>
  <rect x="12.00" y="3.60" width="2.40" height="2.40"/>
  <rect x="14.40" y="3.60" width="2.40" height="2.40"/>
  <rect x="16.80" y="3.60" width="2.40" height="2.40"/>
  <rect x="4.80" y="6.00" width="2.40" height="2.40"/>
  <rect x="16.80" y="6.00" width="2.40" height="2.40"/>
  <rect x="4.80" y="8.40" width="2.40" height="2.40"/>
  <rect x="16.80" y="8.40" width="2.40" height="2.40"/>
  <rect x="4.80" y="10.80" width="2.40" height="2.40"/>
  <rect x="16.80" y="10.80" width="2.40" height="2.40"/>
  <rect x="4.80" y="13.20" width="2.40" height="2.40"/>
  <rect x="12.00" y="13.20" width="2.40" height="2.40"/>
  <rect x="14.40" y="13.20" width="2.40" height="2.40"/>
  <rect x="16.80" y="13.20" width="2.40" height="2.40"/>
  <rect x="21.60" y="13.20" width="2.40" height="2.40"/>
  <rect x="0.00" y="15.60" width="2.40" height="2.40"/>
  <rect x="2.40" y="15.60" width="2.40" height="2.40"/>
  <rect x="4.80" y="15.60" width="2.40" height="2.40"/>
  <rect x="12.00" y="15.60" width="2.40" height="2.40"/>
  <rect x="14.40" y="15.60" width="2.40" height="2.40"/>
  <rect x="16.80" y="15.60" width="2.40" height="2.40"/>
  <rect x="0.00" y="18.00" width="2.40" height="2.40"/>
  <rect x="2.40" y="18.00" width="2.40" height="2.40"/>
  <rect x="4.80" y="18.00" width="2.40" height="2.40"/>
</svg>
