<svg xmlns="http://www.w3.org/2000/svg" width="128" height="128" viewBox="0 0 128 128">
  <rect width="128" height="128" rx="28" fill="#7d5cc6"/>
  <g transform="translate(30,30) scale(2.83)" fill="#ffffff"><rect x="4.80" y="3.60" width="2.40" height="2.40"/><rect x="7.20" y="3.60" width="2.40" height="2.40"/><rect x="9.60" y="3.60" width="2.40" height="2.40"/><rect x="12.00" y="3.60" width="2.40" height="2.40"/><rect x="14.40" y="3.60" width="2.40" height="2.40"/><rect x="16.80" y="3.60" width="2.40" height="2.40"/><rect x="4.80" y="6.00" width="2.40" height="2.40"/><rect x="16.80" y="6.00" width="2.40" height="2.40"/><rect x="4.80" y="8.40" width="2.40" height="2.40"/><rect x="16.80" y="8.40" width="2.40" height="2.40"/><rect x="4.80" y="10.80" width="2.40" height="2.40"/><rect x="16.80" y="10.80" width="2.40" height="2.40"/><rect x="4.80" y="13.20" width="2.40" height="2.40"/><rect x="12.00" y="13.20" width="2.40" height="2.40"/><rect x="14.40" y="13.20" width="2.40" height="2.40"/><rect x="16.80" y="13.20" width="2.40" height="2.40"/><rect x="21.60" y="13.20" width="2.40" height="2.40"/><rect x="0.00" y="15.60" width="2.40" height="2.40"/><rect x="2.40" y="15.60" width="2.40" height="2.40"/><rect x="4.80" y="15.60" width="2.40" height="2.40"/><rect x="12.00" y="15.60" width="2.40" height="2.40"/><rect x="14.40" y="15.60" width="2.40" height="2.40"/><rect x="16.80" y="15.60" width="2.40" height="2.40"/><rect x="0.00" y="18.00" width="2.40" height="2.40"/><rect x="2.40" y="18.00" width="2.40" height="2.40"/><rect x="4.80" y="18.00" width="2.40" height="2.40"/></g>
</svg>
